<!-- <svg xmlns="http://www.w3.org/2000/svg" viewBox="0 0 1440 320">
<path fill="#12161B" fill-opacity="1" 
d="M0,96L48,122.7C96,149,192,203,288,240C384,277,480,299,576,298.7C672,299,768,277,864,250.7C960,224,1056,192,1152,181.3C1248,171,1344,181,1392,186.7L1440,192L1440,320L1392,320C1344,320,1248,320,1152,320C1056,320,960,320,864,320C768,320,672,320,576,320C480,320,384,320,288,320C192,320,96,320,48,320L0,320Z">
</path>
</svg> -->
<svg xmlns="http://www.w3.org/2000/svg" viewBox="0 0 1440 320"><path fill="#08060B" fill-opacity="1" d="M0,128L80,117.3C160,107,320,85,480,96C640,107,800,149,960,154.7C1120,160,1280,128,1360,112L1440,96L1440,320L1360,320C1280,320,1120,320,960,320C800,320,640,320,480,320C320,320,160,320,80,320L0,320Z"></path></svg>