<svg width="151" height="42" viewBox="0 0 151 42" fill="none" xmlns="http://www.w3.org/2000/svg">
<path fill-rule="evenodd" clip-rule="evenodd" d="M18.4298 4.1055C9.61175 4.1055 2.44864 11.2686 2.44864 20.0866C2.44864 28.9046 9.61175 36.0677 18.4298 36.0677C22.8603 36.0677 26.8629 34.2776 29.7503 31.371C30.149 30.9696 30.7976 30.9674 31.199 31.3662C31.6004 31.7649 31.6026 32.4135 31.2038 32.8149C27.9447 36.0958 23.424 38.1166 18.4298 38.1166C8.4802 38.1166 0.39978 30.0362 0.39978 20.0866C0.39978 10.1371 8.4802 2.05664 18.4298 2.05664C23.4259 2.05664 27.9242 4.07871 31.2014 7.35591C31.6015 7.75597 31.6015 8.40461 31.2014 8.80467C30.8014 9.20474 30.1527 9.20474 29.7527 8.80467C26.8423 5.89431 22.8584 4.1055 18.4298 4.1055Z" fill="url(#paint0_linear_403_1028)"/>
<path fill-rule="evenodd" clip-rule="evenodd" d="M10.6852 14.6571C10.6852 14.0913 11.1438 13.6327 11.7096 13.6327H25.8877C26.4535 13.6327 26.9122 14.0913 26.9122 14.6571C26.9122 15.2229 26.4535 15.6816 25.8877 15.6816H11.7096C11.1438 15.6816 10.6852 15.2229 10.6852 14.6571Z" fill="url(#paint1_linear_403_1028)"/>
<path fill-rule="evenodd" clip-rule="evenodd" d="M26.7011 14.0343C27.0451 14.4834 26.9599 15.1265 26.5107 15.4705L12.3326 26.3294C11.8834 26.6735 11.2404 26.5882 10.8964 26.139C10.5523 25.6899 10.6376 25.0469 11.0868 24.7028L25.2649 13.8439C25.7141 13.4999 26.3571 13.5851 26.7011 14.0343Z" fill="url(#paint2_linear_403_1028)"/>
<path fill-rule="evenodd" clip-rule="evenodd" d="M10.6851 25.5161C10.6851 24.9504 11.1437 24.4917 11.7095 24.4917H36.3368C36.9026 24.4917 37.3612 24.9504 37.3612 25.5161C37.3612 26.0819 36.9026 26.5406 36.3368 26.5406H11.7095C11.1437 26.5406 10.6851 26.0819 10.6851 25.5161Z" fill="url(#paint3_linear_403_1028)"/>
<path d="M53.6311 27.7977C52.0268 27.7977 50.5829 27.4527 49.2994 26.7629C48.032 26.057 47.0293 25.0543 46.2913 23.7548C45.5694 22.4392 45.2084 20.9071 45.2084 19.1584C45.2084 17.4097 45.5694 15.8856 46.2913 14.5861C47.0293 13.2706 48.032 12.2679 49.2994 11.578C50.5829 10.8721 52.0268 10.5192 53.6311 10.5192C54.722 10.5192 55.6927 10.6475 56.5429 10.9042C57.4093 11.1609 58.2676 11.5299 59.1179 12.0112C59.4708 12.2037 59.6473 12.5085 59.6473 12.9256C59.6473 13.1663 59.5591 13.3829 59.3826 13.5754C59.2061 13.7519 58.9735 13.8401 58.6847 13.8401C58.5243 13.8401 58.3799 13.808 58.2515 13.7438C57.5456 13.3748 56.8558 13.0941 56.182 12.9016C55.5082 12.709 54.7301 12.6128 53.8477 12.6128C52.468 12.6128 51.2888 12.9016 50.3102 13.4791C49.3476 14.0406 48.6176 14.8187 48.1203 15.8134C47.639 16.792 47.3983 17.907 47.3983 19.1584C47.3983 20.4098 47.639 21.5328 48.1203 22.5275C48.6176 23.5061 49.3476 24.2842 50.3102 24.8618C51.2888 25.4233 52.468 25.704 53.8477 25.704C54.7301 25.704 55.5082 25.6078 56.182 25.4152C56.8558 25.2227 57.5456 24.942 58.2515 24.573C58.3799 24.5088 58.5243 24.4767 58.6847 24.4767C58.9735 24.4767 59.2061 24.565 59.3826 24.7414C59.5591 24.9179 59.6473 25.1345 59.6473 25.3912C59.6473 25.8083 59.4708 26.1131 59.1179 26.3056C58.2676 26.7869 57.4093 27.1559 56.5429 27.4126C55.6927 27.6693 54.722 27.7977 53.6311 27.7977ZM66.9859 27.557C66.6811 27.557 66.4244 27.4527 66.2159 27.2442C66.0073 27.0356 65.903 26.7789 65.903 26.4741V11.8668C65.903 11.562 66.0073 11.3053 66.2159 11.0967C66.4244 10.8721 66.6811 10.7598 66.9859 10.7598H76.6359C76.9247 10.7598 77.1653 10.8641 77.3579 11.0726C77.5664 11.2652 77.6707 11.5058 77.6707 11.7946C77.6707 12.0834 77.5664 12.324 77.3579 12.5165C77.1653 12.709 76.9247 12.8053 76.6359 12.8053H68.0929V18.1236H75.7696C76.0584 18.1236 76.299 18.2279 76.4915 18.4365C76.7001 18.629 76.8044 18.8696 76.8044 19.1584C76.8044 19.4472 76.7001 19.6878 76.4915 19.8803C76.299 20.0729 76.0584 20.1691 75.7696 20.1691H68.0929V25.5115H76.6359C76.9247 25.5115 77.1653 25.6158 77.3579 25.8243C77.5664 26.0169 77.6707 26.2575 77.6707 26.5463C77.6707 26.8351 77.5664 27.0757 77.3579 27.2682C77.1653 27.4607 76.9247 27.557 76.6359 27.557H66.9859ZM85.2833 27.557C84.9785 27.557 84.7218 27.4527 84.5132 27.2442C84.3046 27.0356 84.2004 26.7789 84.2004 26.4741V11.8668C84.2004 11.562 84.3046 11.3053 84.5132 11.0967C84.7218 10.8721 84.9785 10.7598 85.2833 10.7598H94.9332C95.222 10.7598 95.4627 10.8641 95.6552 11.0726C95.8637 11.2652 95.968 11.5058 95.968 11.7946C95.968 12.0834 95.8637 12.324 95.6552 12.5165C95.4627 12.709 95.222 12.8053 94.9332 12.8053H86.3903V18.1236H94.0669C94.3557 18.1236 94.5963 18.2279 94.7889 18.4365C94.9974 18.629 95.1017 18.8696 95.1017 19.1584C95.1017 19.4472 94.9974 19.6878 94.7889 19.8803C94.5963 20.0729 94.3557 20.1691 94.0669 20.1691H86.3903V25.5115H94.9332C95.222 25.5115 95.4627 25.6158 95.6552 25.8243C95.8637 26.0169 95.968 26.2575 95.968 26.5463C95.968 26.8351 95.8637 27.0757 95.6552 27.2682C95.4627 27.4607 95.222 27.557 94.9332 27.557H85.2833ZM102.69 27.557C102.305 27.557 101.976 27.4206 101.704 27.1479C101.431 26.8752 101.294 26.5463 101.294 26.1613C101.294 25.8083 101.391 25.5115 101.583 25.2709L111.642 12.8534H102.377C102.089 12.8534 101.84 12.7572 101.631 12.5647C101.439 12.3561 101.343 12.1074 101.343 11.8186C101.343 11.5299 101.439 11.2812 101.631 11.0726C101.84 10.8641 102.089 10.7598 102.377 10.7598H112.821C113.271 10.7598 113.624 10.9042 113.88 11.193C114.153 11.4817 114.289 11.8347 114.289 12.2518C114.289 12.4122 114.249 12.5807 114.169 12.7572C114.105 12.9336 114.017 13.0861 113.904 13.2144L103.966 25.5115H113.399C113.688 25.5115 113.928 25.6158 114.121 25.8243C114.33 26.0169 114.434 26.2575 114.434 26.5463C114.434 26.8351 114.33 27.0757 114.121 27.2682C113.928 27.4607 113.688 27.557 113.399 27.557H102.69ZM121.878 27.557C121.573 27.557 121.316 27.4527 121.108 27.2442C120.899 27.0356 120.795 26.7789 120.795 26.4741V11.8668C120.795 11.562 120.899 11.3053 121.108 11.0967C121.316 10.8721 121.573 10.7598 121.878 10.7598H131.528C131.817 10.7598 132.057 10.8641 132.25 11.0726C132.458 11.2652 132.563 11.5058 132.563 11.7946C132.563 12.0834 132.458 12.324 132.25 12.5165C132.057 12.709 131.817 12.8053 131.528 12.8053H122.985V18.1236H130.662C130.95 18.1236 131.191 18.2279 131.384 18.4365C131.592 18.629 131.696 18.8696 131.696 19.1584C131.696 19.4472 131.592 19.6878 131.384 19.8803C131.191 20.0729 130.95 20.1691 130.662 20.1691H122.985V25.5115H131.528C131.817 25.5115 132.057 25.6158 132.25 25.8243C132.458 26.0169 132.563 26.2575 132.563 26.5463C132.563 26.8351 132.458 27.0757 132.25 27.2682C132.057 27.4607 131.817 27.557 131.528 27.557H121.878ZM140.175 27.557C139.87 27.557 139.614 27.4527 139.405 27.2442C139.197 27.0356 139.092 26.7789 139.092 26.4741V11.8668C139.092 11.562 139.197 11.3053 139.405 11.0967C139.614 10.8721 139.87 10.7598 140.175 10.7598H149.825C150.114 10.7598 150.355 10.8641 150.547 11.0726C150.756 11.2652 150.86 11.5058 150.86 11.7946C150.86 12.0834 150.756 12.324 150.547 12.5165C150.355 12.709 150.114 12.8053 149.825 12.8053H141.282V18.1236H148.959C149.248 18.1236 149.488 18.2279 149.681 18.4365C149.889 18.629 149.994 18.8696 149.994 19.1584C149.994 19.4472 149.889 19.6878 149.681 19.8803C149.488 20.0729 149.248 20.1691 148.959 20.1691H141.282V25.5115H149.825C150.114 25.5115 150.355 25.6158 150.547 25.8243C150.756 26.0169 150.86 26.2575 150.86 26.5463C150.86 26.8351 150.756 27.0757 150.547 27.2682C150.355 27.4607 150.114 27.557 149.825 27.557H140.175Z" fill="white"/>
<defs>
<linearGradient id="paint0_linear_403_1028" x1="15.9506" y1="2.05664" x2="15.9506" y2="38.1166" gradientUnits="userSpaceOnUse">
<stop stop-color="#2ABEDF"/>
<stop offset="1" stop-color="#2A88DF"/>
</linearGradient>
<linearGradient id="paint1_linear_403_1028" x1="18.7987" y1="13.6327" x2="18.7987" y2="15.6816" gradientUnits="userSpaceOnUse">
<stop stop-color="#2ABEDF"/>
<stop offset="1" stop-color="#2A88DF"/>
</linearGradient>
<linearGradient id="paint2_linear_403_1028" x1="18.7987" y1="13.6327" x2="18.7987" y2="26.5406" gradientUnits="userSpaceOnUse">
<stop stop-color="#2ABEDF"/>
<stop offset="1" stop-color="#2A88DF"/>
</linearGradient>
<linearGradient id="paint3_linear_403_1028" x1="24.0231" y1="24.4917" x2="24.0231" y2="26.5406" gradientUnits="userSpaceOnUse">
<stop stop-color="#2ABEDF"/>
<stop offset="1" stop-color="#2A88DF"/>
</linearGradient>
</defs>
</svg>
