<svg width="29" height="22" viewBox="0 0 29 22" fill="none" xmlns="http://www.w3.org/2000/svg">
<path d="M1.94025 6.04545L4.57164 13.7457H4.67782L7.30922 6.04545H8.85112L5.44877 15.5H3.80069L0.398349 6.04545H1.94025ZM10.0872 15.5V14.4659L13.2864 11.1513C13.628 10.7912 13.9096 10.4757 14.1312 10.2049C14.3559 9.93099 14.5236 9.67093 14.6344 9.42472C14.7452 9.1785 14.8006 8.9169 14.8006 8.63991C14.8006 8.32599 14.7267 8.05516 14.579 7.82741C14.4313 7.59659 14.2297 7.41963 13.9743 7.29652C13.7188 7.17034 13.431 7.10724 13.111 7.10724C12.7724 7.10724 12.477 7.17649 12.2246 7.31499C11.9722 7.45348 11.7783 7.64891 11.6429 7.90128C11.5075 8.15365 11.4398 8.4491 11.4398 8.78764H10.0779C10.0779 8.21212 10.2103 7.70893 10.475 7.27805C10.7396 6.84718 11.1028 6.51326 11.5645 6.27628C12.0261 6.03622 12.5508 5.91619 13.1387 5.91619C13.7327 5.91619 14.2559 6.03468 14.7083 6.27166C15.1638 6.50556 15.5192 6.82564 15.7747 7.23189C16.0301 7.63506 16.1578 8.09055 16.1578 8.59837C16.1578 8.94922 16.0917 9.29238 15.9593 9.62784C15.8301 9.9633 15.6039 10.3372 15.2807 10.7496C14.9576 11.159 14.5082 11.656 13.9327 12.2408L12.0538 14.2074V14.2766H16.3102V15.5H10.0872Z" fill="#919AAE"/>
<path d="M27.8535 8.57812L27.5195 8.22656C27.4316 8.13867 27.291 8.13867 27.2207 8.22656L24.0391 11.4082L20.8398 8.22656C20.7695 8.13867 20.6289 8.13867 20.541 8.22656L20.207 8.57812C20.1191 8.64844 20.1191 8.78906 20.207 8.87695L23.8809 12.5508C23.9688 12.6387 24.0918 12.6387 24.1797 12.5508L27.8535 8.87695C27.9414 8.78906 27.9414 8.64844 27.8535 8.57812Z" fill="#919AAE"/>
</svg>
