<svg width="104" height="29" viewBox="0 0 104 29" fill="none" xmlns="http://www.w3.org/2000/svg">
<path fill-rule="evenodd" clip-rule="evenodd" d="M13.1014 3.30733C7.12175 3.30733 2.26436 8.16472 2.26436 14.1443C2.26436 20.1239 7.12175 24.9813 13.1014 24.9813C16.1057 24.9813 18.82 23.7674 20.7779 21.7964C21.0483 21.5242 21.4882 21.5227 21.7604 21.7931C22.0326 22.0635 22.034 22.5034 21.7636 22.7755C19.5535 25.0004 16.488 26.3707 13.1014 26.3707C6.35443 26.3707 0.875 20.8912 0.875 14.1443C0.875 7.3974 6.35443 1.91797 13.1014 1.91797C16.4893 1.91797 19.5397 3.28916 21.762 5.51147C22.0333 5.78276 22.0333 6.22261 21.762 6.49389C21.4907 6.76518 21.0509 6.76518 20.7796 6.49389C18.806 4.52034 16.1045 3.30733 13.1014 3.30733Z" fill="url(#paint0_linear_387_86)"/>
<path fill-rule="evenodd" clip-rule="evenodd" d="M7.84961 10.4623C7.84961 10.0786 8.16063 9.76758 8.54429 9.76758H18.1587C18.5423 9.76758 18.8533 10.0786 18.8533 10.4623C18.8533 10.8459 18.5423 11.1569 18.1587 11.1569H8.54429C8.16063 11.1569 7.84961 10.8459 7.84961 10.4623Z" fill="url(#paint1_linear_387_86)"/>
<path fill-rule="evenodd" clip-rule="evenodd" d="M18.7102 10.0399C18.9435 10.3445 18.8857 10.7805 18.5811 11.0138L8.96672 18.3774C8.66213 18.6107 8.2261 18.5529 7.99282 18.2483C7.75953 17.9437 7.81734 17.5077 8.12193 17.2744L17.7363 9.91079C18.0409 9.6775 18.4769 9.73531 18.7102 10.0399Z" fill="url(#paint2_linear_387_86)"/>
<path fill-rule="evenodd" clip-rule="evenodd" d="M7.84961 17.8255C7.84961 17.4419 8.16063 17.1309 8.54429 17.1309H25.2444C25.628 17.1309 25.9391 17.4419 25.9391 17.8255C25.9391 18.2092 25.628 18.5202 25.2444 18.5202H8.54429C8.16063 18.5202 7.84961 18.2092 7.84961 17.8255Z" fill="url(#paint3_linear_387_86)"/>
<path d="M36.9722 19.4552C35.8843 19.4552 34.9052 19.2213 34.0349 18.7535C33.1754 18.2748 32.4955 17.5949 31.9951 16.7137C31.5055 15.8216 31.2607 14.7826 31.2607 13.5968C31.2607 12.411 31.5055 11.3775 31.9951 10.4963C32.4955 9.60417 33.1754 8.92423 34.0349 8.45643C34.9052 7.97775 35.8843 7.73841 36.9722 7.73841C37.712 7.73841 38.3702 7.82544 38.9468 7.99951C39.5343 8.17357 40.1163 8.42379 40.6929 8.75016C40.9322 8.88071 41.0519 9.08742 41.0519 9.37027C41.0519 9.53346 40.9921 9.68032 40.8724 9.81087C40.7527 9.93054 40.595 9.99038 40.3992 9.99038C40.2904 9.99038 40.1925 9.96862 40.1054 9.9251C39.6267 9.67489 39.1589 9.4845 38.702 9.35395C38.2451 9.2234 37.7175 9.15813 37.1191 9.15813C36.1835 9.15813 35.3839 9.35395 34.7203 9.7456C34.0675 10.1264 33.5725 10.654 33.2353 11.3285C32.9089 11.9921 32.7457 12.7482 32.7457 13.5968C32.7457 14.4454 32.9089 15.2069 33.2353 15.8814C33.5725 16.545 34.0675 17.0727 34.7203 17.4643C35.3839 17.8451 36.1835 18.0355 37.1191 18.0355C37.7175 18.0355 38.2451 17.9702 38.702 17.8396C39.1589 17.7091 39.6267 17.5187 40.1054 17.2685C40.1925 17.225 40.2904 17.2032 40.3992 17.2032C40.595 17.2032 40.7527 17.263 40.8724 17.3827C40.9921 17.5024 41.0519 17.6493 41.0519 17.8233C41.0519 18.1062 40.9322 18.3129 40.6929 18.4434C40.1163 18.7698 39.5343 19.02 38.9468 19.1941C38.3702 19.3681 37.712 19.4552 36.9722 19.4552ZM46.0283 19.292C45.8216 19.292 45.6476 19.2213 45.5061 19.0799C45.3647 18.9384 45.294 18.7644 45.294 18.5577V8.65225C45.294 8.44555 45.3647 8.27148 45.5061 8.13006C45.6476 7.97775 45.8216 7.9016 46.0283 7.9016H52.5721C52.7679 7.9016 52.9311 7.97231 53.0617 8.11374C53.2031 8.24429 53.2738 8.40747 53.2738 8.6033C53.2738 8.79912 53.2031 8.96231 53.0617 9.09286C52.9311 9.2234 52.7679 9.28868 52.5721 9.28868H46.779V12.8951H51.9846C52.1804 12.8951 52.3436 12.9658 52.4742 13.1072C52.6156 13.2378 52.6863 13.401 52.6863 13.5968C52.6863 13.7926 52.6156 13.9558 52.4742 14.0864C52.3436 14.2169 52.1804 14.2822 51.9846 14.2822H46.779V17.9049H52.5721C52.7679 17.9049 52.9311 17.9756 53.0617 18.1171C53.2031 18.2476 53.2738 18.4108 53.2738 18.6066C53.2738 18.8024 53.2031 18.9656 53.0617 19.0962C52.9311 19.2267 52.7679 19.292 52.5721 19.292H46.0283ZM58.436 19.292C58.2293 19.292 58.0552 19.2213 57.9138 19.0799C57.7724 18.9384 57.7016 18.7644 57.7016 18.5577V8.65225C57.7016 8.44555 57.7724 8.27148 57.9138 8.13006C58.0552 7.97775 58.2293 7.9016 58.436 7.9016H64.9797C65.1756 7.9016 65.3388 7.97231 65.4693 8.11374C65.6107 8.24429 65.6814 8.40747 65.6814 8.6033C65.6814 8.79912 65.6107 8.96231 65.4693 9.09286C65.3388 9.2234 65.1756 9.28868 64.9797 9.28868H59.1866V12.8951H64.3923C64.5881 12.8951 64.7513 12.9658 64.8818 13.1072C65.0233 13.2378 65.094 13.401 65.094 13.5968C65.094 13.7926 65.0233 13.9558 64.8818 14.0864C64.7513 14.2169 64.5881 14.2822 64.3923 14.2822H59.1866V17.9049H64.9797C65.1756 17.9049 65.3388 17.9756 65.4693 18.1171C65.6107 18.2476 65.6814 18.4108 65.6814 18.6066C65.6814 18.8024 65.6107 18.9656 65.4693 19.0962C65.3388 19.2267 65.1756 19.292 64.9797 19.292H58.436ZM70.2398 19.292C69.9787 19.292 69.7557 19.1995 69.5708 19.0146C69.3858 18.8296 69.2933 18.6066 69.2933 18.3455C69.2933 18.1062 69.3586 17.9049 69.4892 17.7417L76.3104 9.32132H70.0277C69.8319 9.32132 69.6632 9.25604 69.5218 9.12549C69.3913 8.98406 69.326 8.81544 69.326 8.61961C69.326 8.42379 69.3913 8.25517 69.5218 8.11374C69.6632 7.97231 69.8319 7.9016 70.0277 7.9016H77.11C77.4146 7.9016 77.6539 7.99951 77.828 8.19533C78.0129 8.39115 78.1054 8.63049 78.1054 8.91335C78.1054 9.02214 78.0782 9.13637 78.0238 9.25604C77.9803 9.37571 77.9205 9.47906 77.8443 9.5661L71.1047 17.9049H77.5016C77.6974 17.9049 77.8606 17.9756 77.9912 18.1171C78.1326 18.2476 78.2033 18.4108 78.2033 18.6066C78.2033 18.8024 78.1326 18.9656 77.9912 19.0962C77.8606 19.2267 77.6974 19.292 77.5016 19.292H70.2398ZM83.2513 19.292C83.0446 19.292 82.8705 19.2213 82.7291 19.0799C82.5876 18.9384 82.5169 18.7644 82.5169 18.5577V8.65225C82.5169 8.44555 82.5876 8.27148 82.7291 8.13006C82.8705 7.97775 83.0446 7.9016 83.2513 7.9016H89.795C89.9909 7.9016 90.154 7.97231 90.2846 8.11374C90.426 8.24429 90.4967 8.40747 90.4967 8.6033C90.4967 8.79912 90.426 8.96231 90.2846 9.09286C90.154 9.2234 89.9909 9.28868 89.795 9.28868H84.0019V12.8951H89.2076C89.4034 12.8951 89.5666 12.9658 89.6971 13.1072C89.8385 13.2378 89.9093 13.401 89.9093 13.5968C89.9093 13.7926 89.8385 13.9558 89.6971 14.0864C89.5666 14.2169 89.4034 14.2822 89.2076 14.2822H84.0019V17.9049H89.795C89.9909 17.9049 90.154 17.9756 90.2846 18.1171C90.426 18.2476 90.4967 18.4108 90.4967 18.6066C90.4967 18.8024 90.426 18.9656 90.2846 19.0962C90.154 19.2267 89.9909 19.292 89.795 19.292H83.2513ZM95.6589 19.292C95.4522 19.292 95.2781 19.2213 95.1367 19.0799C94.9953 18.9384 94.9246 18.7644 94.9246 18.5577V8.65225C94.9246 8.44555 94.9953 8.27148 95.1367 8.13006C95.2781 7.97775 95.4522 7.9016 95.6589 7.9016H102.203C102.399 7.9016 102.562 7.97231 102.692 8.11374C102.834 8.24429 102.904 8.40747 102.904 8.6033C102.904 8.79912 102.834 8.96231 102.692 9.09286C102.562 9.2234 102.399 9.28868 102.203 9.28868H96.4096V12.8951H101.615C101.811 12.8951 101.974 12.9658 102.105 13.1072C102.246 13.2378 102.317 13.401 102.317 13.5968C102.317 13.7926 102.246 13.9558 102.105 14.0864C101.974 14.2169 101.811 14.2822 101.615 14.2822H96.4096V17.9049H102.203C102.399 17.9049 102.562 17.9756 102.692 18.1171C102.834 18.2476 102.904 18.4108 102.904 18.6066C102.904 18.8024 102.834 18.9656 102.692 19.0962C102.562 19.2267 102.399 19.292 102.203 19.292H95.6589Z" fill="white"/>
<defs>
<linearGradient id="paint0_linear_387_86" x1="11.4202" y1="1.91797" x2="11.4202" y2="26.3707" gradientUnits="userSpaceOnUse">
<stop stop-color="#2ABEDF"/>
<stop offset="1" stop-color="#2A88DF"/>
</linearGradient>
<linearGradient id="paint1_linear_387_86" x1="13.3515" y1="9.76758" x2="13.3515" y2="11.1569" gradientUnits="userSpaceOnUse">
<stop stop-color="#2ABEDF"/>
<stop offset="1" stop-color="#2A88DF"/>
</linearGradient>
<linearGradient id="paint2_linear_387_86" x1="13.3515" y1="9.76758" x2="13.3515" y2="18.5206" gradientUnits="userSpaceOnUse">
<stop stop-color="#2ABEDF"/>
<stop offset="1" stop-color="#2A88DF"/>
</linearGradient>
<linearGradient id="paint3_linear_387_86" x1="16.8943" y1="17.1309" x2="16.8943" y2="18.5202" gradientUnits="userSpaceOnUse">
<stop stop-color="#2ABEDF"/>
<stop offset="1" stop-color="#2A88DF"/>
</linearGradient>
</defs>
</svg>
