<svg width="301" height="31" viewBox="0 0 301 31" fill="none" xmlns="http://www.w3.org/2000/svg">
<path d="M101.832 6.54545V24H98.142V6.54545H101.832ZM108.431 16.4318V24H104.8V10.9091H108.261V13.2188H108.414C108.704 12.4574 109.19 11.8551 109.871 11.4119C110.553 10.9631 111.38 10.7386 112.352 10.7386C113.261 10.7386 114.053 10.9375 114.729 11.3352C115.406 11.733 115.931 12.3011 116.306 13.0398C116.681 13.7727 116.869 14.6477 116.869 15.6648V24H113.238V16.3125C113.244 15.5114 113.039 14.8864 112.624 14.4375C112.21 13.983 111.638 13.7557 110.911 13.7557C110.423 13.7557 109.991 13.8608 109.616 14.071C109.246 14.2812 108.957 14.5881 108.746 14.9915C108.542 15.3892 108.437 15.8693 108.431 16.4318ZM125.285 28.9091V10.9091H128.864V13.108H129.026C129.185 12.7557 129.415 12.3977 129.717 12.0341C130.023 11.6648 130.421 11.358 130.91 11.1136C131.404 10.8636 132.018 10.7386 132.751 10.7386C133.705 10.7386 134.586 10.9886 135.393 11.4886C136.2 11.983 136.844 12.7301 137.327 13.7301C137.81 14.7244 138.052 15.9716 138.052 17.4716C138.052 18.9318 137.816 20.1648 137.344 21.1705C136.879 22.1705 136.242 22.929 135.435 23.446C134.634 23.9574 133.737 24.2131 132.742 24.2131C132.038 24.2131 131.438 24.0966 130.944 23.8636C130.455 23.6307 130.055 23.3381 129.742 22.9858C129.43 22.6278 129.191 22.267 129.026 21.9034H128.915V28.9091H125.285ZM128.839 17.4545C128.839 18.233 128.947 18.9119 129.163 19.4915C129.379 20.071 129.691 20.5227 130.1 20.8466C130.509 21.1648 131.006 21.3239 131.592 21.3239C132.183 21.3239 132.683 21.1619 133.092 20.8381C133.501 20.5085 133.81 20.054 134.021 19.4744C134.237 18.8892 134.344 18.2159 134.344 17.4545C134.344 16.6989 134.239 16.0341 134.029 15.4602C133.819 14.8864 133.509 14.4375 133.1 14.1136C132.691 13.7898 132.188 13.6278 131.592 13.6278C131.001 13.6278 130.501 13.7841 130.092 14.0966C129.688 14.4091 129.379 14.8523 129.163 15.4261C128.947 16 128.839 16.6761 128.839 17.4545ZM140.472 24V10.9091H143.992V13.1932H144.129C144.367 12.3807 144.768 11.767 145.33 11.3523C145.893 10.9318 146.54 10.7216 147.273 10.7216C147.455 10.7216 147.651 10.733 147.862 10.7557C148.072 10.7784 148.256 10.8097 148.415 10.8494V14.071C148.245 14.0199 148.009 13.9744 147.708 13.9347C147.407 13.8949 147.131 13.875 146.881 13.875C146.347 13.875 145.87 13.9915 145.45 14.2244C145.035 14.4517 144.705 14.7699 144.461 15.179C144.222 15.5881 144.103 16.0597 144.103 16.5938V24H140.472ZM150.293 24V10.9091H153.923V24H150.293ZM152.116 9.22159C151.577 9.22159 151.114 9.04261 150.727 8.68466C150.347 8.32102 150.156 7.88636 150.156 7.38068C150.156 6.88068 150.347 6.4517 150.727 6.09375C151.114 5.73011 151.577 5.54829 152.116 5.54829C152.656 5.54829 153.116 5.73011 153.497 6.09375C153.884 6.4517 154.077 6.88068 154.077 7.38068C154.077 7.88636 153.884 8.32102 153.497 8.68466C153.116 9.04261 152.656 9.22159 152.116 9.22159ZM156.763 24V21.8352L163.173 13.9006V13.8068H156.985V10.9091H167.545V13.2699L161.528 21.0085V21.1023H167.766V24H156.763ZM176.134 24.2557C174.787 24.2557 173.628 23.983 172.656 23.4375C171.69 22.8864 170.946 22.108 170.423 21.1023C169.901 20.0909 169.639 18.8949 169.639 17.5142C169.639 16.1676 169.901 14.9858 170.423 13.9688C170.946 12.9517 171.682 12.1591 172.631 11.5909C173.585 11.0227 174.705 10.7386 175.989 10.7386C176.852 10.7386 177.656 10.8778 178.401 11.1562C179.151 11.429 179.804 11.8409 180.361 12.392C180.923 12.9432 181.361 13.6364 181.673 14.4716C181.986 15.3011 182.142 16.2727 182.142 17.3864V18.3835H171.088V16.1335H178.724C178.724 15.6108 178.611 15.1477 178.384 14.7443C178.156 14.3409 177.841 14.0256 177.438 13.7983C177.04 13.5653 176.577 13.4489 176.048 13.4489C175.497 13.4489 175.009 13.5767 174.582 13.8324C174.162 14.0824 173.832 14.4205 173.594 14.8466C173.355 15.267 173.233 15.7358 173.227 16.2528V18.392C173.227 19.0398 173.347 19.5994 173.585 20.071C173.83 20.5426 174.173 20.9062 174.616 21.1619C175.06 21.4176 175.585 21.5455 176.193 21.5455C176.597 21.5455 176.966 21.4886 177.301 21.375C177.636 21.2614 177.923 21.0909 178.162 20.8636C178.401 20.6364 178.582 20.358 178.707 20.0284L182.065 20.25C181.895 21.0568 181.545 21.7614 181.017 22.3636C180.494 22.9602 179.818 23.4261 178.989 23.7614C178.165 24.0909 177.213 24.2557 176.134 24.2557ZM195.403 14.642L192.08 14.8466C192.023 14.5625 191.901 14.3068 191.713 14.0795C191.526 13.8466 191.278 13.6619 190.972 13.5256C190.67 13.3835 190.31 13.3125 189.889 13.3125C189.327 13.3125 188.852 13.4318 188.466 13.6705C188.08 13.9034 187.886 14.2159 187.886 14.608C187.886 14.9205 188.011 15.1847 188.261 15.4006C188.511 15.6165 188.94 15.7898 189.548 15.9205L191.918 16.3977C193.19 16.6591 194.139 17.0795 194.764 17.6591C195.389 18.2386 195.702 19 195.702 19.9432C195.702 20.8011 195.449 21.554 194.943 22.2017C194.443 22.8494 193.756 23.3551 192.881 23.7188C192.011 24.0767 191.009 24.2557 189.872 24.2557C188.139 24.2557 186.759 23.8949 185.73 23.1733C184.707 22.446 184.108 21.4574 183.932 20.2074L187.503 20.0199C187.611 20.5483 187.872 20.9517 188.287 21.2301C188.702 21.5028 189.233 21.6392 189.881 21.6392C190.517 21.6392 191.028 21.517 191.415 21.2727C191.807 21.0227 192.006 20.7017 192.011 20.3097C192.006 19.9801 191.866 19.7102 191.594 19.5C191.321 19.2841 190.901 19.1193 190.332 19.0057L188.065 18.554C186.787 18.2983 185.835 17.8551 185.21 17.2244C184.591 16.5937 184.281 15.7898 184.281 14.8125C184.281 13.9716 184.509 13.2472 184.963 12.6392C185.423 12.0312 186.068 11.5625 186.898 11.233C187.733 10.9034 188.71 10.7386 189.83 10.7386C191.483 10.7386 192.784 11.0881 193.733 11.7869C194.688 12.4858 195.244 13.4375 195.403 14.642ZM202.326 6.54545L201.994 18.767H198.874L198.533 6.54545H202.326ZM200.434 24.2216C199.871 24.2216 199.388 24.0227 198.985 23.625C198.582 23.2216 198.383 22.7386 198.388 22.1761C198.383 21.6193 198.582 21.142 198.985 20.7443C199.388 20.3466 199.871 20.1477 200.434 20.1477C200.974 20.1477 201.448 20.3466 201.857 20.7443C202.266 21.142 202.474 21.6193 202.479 22.1761C202.474 22.5511 202.374 22.8949 202.181 23.2074C201.994 23.5142 201.746 23.7614 201.44 23.9489C201.133 24.1307 200.798 24.2216 200.434 24.2216Z" fill="#424959"/>
<line x1="220.375" y1="15" x2="300.375" y2="15" stroke="#424959" stroke-width="2"/>
<line x1="0.625" y1="15" x2="80.625" y2="15" stroke="#424959" stroke-width="2"/>
</svg>
