<svg width="67" height="20" viewBox="0 0 67 20" fill="none" xmlns="http://www.w3.org/2000/svg">
<path fill-rule="evenodd" clip-rule="evenodd" d="M9.55776 1.84965C4.97214 1.84965 1.24711 5.57468 1.24711 10.1603C1.24711 14.7459 4.97214 18.471 9.55776 18.471C11.8618 18.471 13.9432 17.5401 15.4448 16.0285C15.6521 15.8198 15.9894 15.8186 16.1982 16.026C16.4069 16.2334 16.408 16.5707 16.2007 16.7794C14.5058 18.4856 12.1549 19.5364 9.55776 19.5364C4.3837 19.5364 0.181641 15.3344 0.181641 10.1603C0.181641 4.98624 4.3837 0.78418 9.55776 0.78418C12.1559 0.78418 14.4952 1.83572 16.1994 3.53996C16.4075 3.748 16.4075 4.08531 16.1994 4.29336C15.9914 4.5014 15.6541 4.5014 15.446 4.29336C13.9325 2.77988 11.8608 1.84965 9.55776 1.84965Z" fill="url(#paint0_linear_387_97)"/>
<path fill-rule="evenodd" clip-rule="evenodd" d="M5.53027 7.33645C5.53027 7.04222 5.76879 6.80371 6.06301 6.80371H13.436C13.7303 6.80371 13.9688 7.04222 13.9688 7.33645C13.9688 7.63067 13.7303 7.86918 13.436 7.86918H6.06301C5.76879 7.86918 5.53027 7.63067 5.53027 7.33645Z" fill="url(#paint1_linear_387_97)"/>
<path fill-rule="evenodd" clip-rule="evenodd" d="M13.859 7.01255C14.0379 7.24613 13.9936 7.58051 13.76 7.75941L6.38696 13.4064C6.15338 13.5853 5.819 13.541 5.6401 13.3074C5.4612 13.0738 5.50553 12.7394 5.73911 12.5605L13.1122 6.91353C13.3457 6.73463 13.6801 6.77896 13.859 7.01255Z" fill="url(#paint2_linear_387_97)"/>
<path fill-rule="evenodd" clip-rule="evenodd" d="M5.53027 12.9839C5.53027 12.6897 5.76879 12.4512 6.06301 12.4512H18.8699C19.1642 12.4512 19.4027 12.6897 19.4027 12.9839C19.4027 13.2781 19.1642 13.5166 18.8699 13.5166H6.06301C5.76879 13.5166 5.53027 13.2781 5.53027 12.9839Z" fill="url(#paint3_linear_387_97)"/>
<path d="M26.6848 13.7296C25.6253 13.7296 24.6325 13.5294 23.7064 13.1289C23.6063 13.0872 23.5229 13.0205 23.4561 12.9287C23.3894 12.8286 23.356 12.7243 23.356 12.6159C23.356 12.474 23.4019 12.3531 23.4937 12.2529C23.5938 12.1445 23.7189 12.0903 23.8691 12.0903C23.9525 12.0903 24.0318 12.1069 24.1069 12.1403C24.8744 12.4824 25.6962 12.6534 26.5722 12.6534C28.0322 12.6534 28.7622 12.1737 28.7622 11.2142C28.7622 10.964 28.6663 10.7554 28.4744 10.5885C28.2908 10.4217 28.0614 10.2924 27.7861 10.2006C27.5108 10.1005 27.1187 9.98366 26.6097 9.85018C25.934 9.67497 25.3875 9.50812 24.9704 9.3496C24.5532 9.18274 24.1945 8.93662 23.8941 8.61125C23.5938 8.28588 23.4436 7.85204 23.4436 7.30975C23.4436 6.83421 23.5688 6.40455 23.819 6.02077C24.0693 5.62865 24.4364 5.31997 24.9203 5.09471C25.4125 4.86111 26.0007 4.7443 26.6848 4.7443C27.6026 4.7443 28.4327 4.88196 29.1752 5.15728C29.4088 5.24071 29.5256 5.40757 29.5256 5.65785C29.5256 5.79134 29.4797 5.91231 29.3879 6.02077C29.2962 6.12923 29.1752 6.18346 29.025 6.18346C28.975 6.18346 28.9082 6.16677 28.8248 6.1334C28.174 5.90814 27.5024 5.79551 26.81 5.79551C26.1509 5.79551 25.6128 5.92066 25.1956 6.17094C24.7868 6.42123 24.5824 6.77164 24.5824 7.22215C24.5824 7.5225 24.6784 7.76861 24.8702 7.9605C25.0705 8.14405 25.3166 8.29005 25.6086 8.39851C25.9089 8.49862 26.3136 8.60708 26.8225 8.72388C27.4816 8.8824 28.0114 9.04091 28.4118 9.19943C28.8206 9.35794 29.1669 9.60406 29.4505 9.93778C29.7425 10.2715 29.8885 10.722 29.8885 11.2893C29.8885 11.7565 29.755 12.1779 29.4881 12.5533C29.2211 12.9204 28.8457 13.2082 28.3618 13.4168C27.8779 13.6253 27.3189 13.7296 26.6848 13.7296ZM33.1529 13.6671C32.9861 13.6671 32.8484 13.6128 32.74 13.5044C32.6398 13.3959 32.5898 13.2624 32.5898 13.1039C32.5898 13.0372 32.6106 12.9537 32.6524 12.8536L35.8435 5.31997C35.9103 5.16979 36.002 5.04882 36.1188 4.95705C36.244 4.85693 36.3942 4.80688 36.5694 4.80688H36.6945C36.8697 4.80688 37.0157 4.85693 37.1325 4.95705C37.2576 5.04882 37.3536 5.16979 37.4203 5.31997L40.6115 12.8536C40.6532 12.9537 40.6741 13.0372 40.6741 13.1039C40.6741 13.2624 40.6198 13.3959 40.5114 13.5044C40.4113 13.6128 40.2778 13.6671 40.1109 13.6671C39.9941 13.6671 39.8857 13.6379 39.7856 13.5795C39.6938 13.5127 39.6229 13.4251 39.5728 13.3167L38.7594 11.3644H34.5045L33.691 13.3167C33.641 13.4251 33.5659 13.5127 33.4658 13.5795C33.374 13.6379 33.2697 13.6671 33.1529 13.6671ZM34.9425 10.3257H38.3214L36.6319 6.25855L34.9425 10.3257ZM44.6128 13.6671C44.4543 13.6671 44.3208 13.6128 44.2123 13.5044C44.1039 13.3959 44.0496 13.2624 44.0496 13.1039V5.44511C44.0496 5.28659 44.1039 5.15311 44.2123 5.04465C44.3208 4.92785 44.4543 4.86945 44.6128 4.86945H49.4809C49.6311 4.86945 49.7562 4.92368 49.8563 5.03213C49.9648 5.13225 50.019 5.25739 50.019 5.40757C50.019 5.55774 49.9648 5.68288 49.8563 5.783C49.7562 5.88311 49.6311 5.93317 49.4809 5.93317H45.1885V8.69885H49.0429C49.1931 8.69885 49.3182 8.75308 49.4183 8.86154C49.5268 8.96165 49.581 9.0868 49.581 9.23697C49.581 9.38714 49.5268 9.51229 49.4183 9.6124C49.3182 9.71252 49.1931 9.76257 49.0429 9.76257H45.1885V13.1039C45.1885 13.2624 45.1301 13.3959 45.0133 13.5044C44.9048 13.6128 44.7713 13.6671 44.6128 13.6671ZM56.7272 13.7296C56.1349 13.7296 55.5634 13.6045 55.0128 13.3542C54.4621 13.1039 54.0116 12.7243 53.6612 12.2154C53.3108 11.6981 53.1356 11.0682 53.1356 10.3257V5.38254C53.1356 5.22402 53.1898 5.09054 53.2983 4.98208C53.4067 4.86528 53.5402 4.80688 53.6987 4.80688C53.8573 4.80688 53.9907 4.86528 54.0992 4.98208C54.216 5.09054 54.2744 5.22402 54.2744 5.38254V10.3633C54.2744 10.8638 54.387 11.2893 54.6123 11.6397C54.8459 11.9901 55.1504 12.2529 55.5258 12.4281C55.9013 12.6033 56.3017 12.6909 56.7272 12.6909C57.1527 12.6909 57.5532 12.6033 57.9286 12.4281C58.304 12.2529 58.6044 11.9901 58.8296 11.6397C59.0632 11.2893 59.18 10.8638 59.18 10.3633V5.38254C59.18 5.22402 59.2343 5.09054 59.3427 4.98208C59.4512 4.86528 59.5847 4.80688 59.7432 4.80688C59.9017 4.80688 60.0352 4.86528 60.1436 4.98208C60.2605 5.09054 60.3189 5.22402 60.3189 5.38254V10.3257C60.3189 11.0682 60.1436 11.6981 59.7932 12.2154C59.4428 12.7243 58.9923 13.1039 58.4417 13.3542C57.8911 13.6045 57.3196 13.7296 56.7272 13.7296Z" fill="white"/>
<defs>
<linearGradient id="paint0_linear_387_97" x1="7.86362" y1="19.4473" x2="9.07116" y2="0.730437" gradientUnits="userSpaceOnUse">
<stop stop-color="#EF8E0C"/>
<stop offset="1" stop-color="#F0B90A"/>
</linearGradient>
<linearGradient id="paint1_linear_387_97" x1="6.06301" y1="7.41871" x2="13.4361" y2="7.41871" gradientUnits="userSpaceOnUse">
<stop stop-color="#EF8E0C"/>
<stop offset="1" stop-color="#F0B90A"/>
</linearGradient>
<linearGradient id="paint2_linear_387_97" x1="10.2525" y1="10.8919" x2="9.2876" y2="9.41063" gradientUnits="userSpaceOnUse">
<stop stop-color="#EF8E0C"/>
<stop offset="1" stop-color="#F0B90A"/>
</linearGradient>
<linearGradient id="paint3_linear_387_97" x1="6.06301" y1="13.0662" x2="18.8699" y2="13.0662" gradientUnits="userSpaceOnUse">
<stop stop-color="#EF8E0C"/>
<stop offset="1" stop-color="#F0B90A"/>
</linearGradient>
</defs>
</svg>
