<svg width="67" height="20" viewBox="0 0 67 20" fill="none" xmlns="http://www.w3.org/2000/svg">
<path fill-rule="evenodd" clip-rule="evenodd" d="M10.2072 1.69047C5.62155 1.69047 1.89652 5.4155 1.89652 10.0011C1.89652 14.5867 5.62155 18.3118 10.2072 18.3118C12.5112 18.3118 14.5926 17.3809 16.0942 15.8693C16.3015 15.6606 16.6388 15.6595 16.8476 15.8668C17.0563 16.0742 17.0574 16.4115 16.8501 16.6202C15.1552 18.3264 12.8043 19.3772 10.2072 19.3772C5.03311 19.3772 0.831055 15.1752 0.831055 10.0011C0.831055 4.82706 5.03311 0.625 10.2072 0.625C12.8053 0.625 15.1446 1.67654 16.8488 3.38078C17.0569 3.58882 17.0569 3.92613 16.8488 4.13418C16.6408 4.34222 16.3035 4.34222 16.0954 4.13418C14.582 2.6207 12.5102 1.69047 10.2072 1.69047Z" fill="url(#paint0_linear_387_106)"/>
<path fill-rule="evenodd" clip-rule="evenodd" d="M6.17969 7.17727C6.17969 6.88304 6.4182 6.64453 6.71242 6.64453H14.0855C14.3797 6.64453 14.6182 6.88304 14.6182 7.17727C14.6182 7.47149 14.3797 7.71 14.0855 7.71H6.71242C6.4182 7.71 6.17969 7.47149 6.17969 7.17727Z" fill="url(#paint1_linear_387_106)"/>
<path fill-rule="evenodd" clip-rule="evenodd" d="M14.5084 6.85337C14.6873 7.08695 14.643 7.42133 14.4094 7.60023L7.03638 13.2472C6.80279 13.4261 6.46841 13.3818 6.28951 13.1482C6.11061 12.9146 6.15494 12.5802 6.38852 12.4013L13.7616 6.75435C13.9951 6.57545 14.3295 6.61978 14.5084 6.85337Z" fill="url(#paint2_linear_387_106)"/>
<path fill-rule="evenodd" clip-rule="evenodd" d="M6.17969 12.8247C6.17969 12.5305 6.4182 12.292 6.71242 12.292H19.5194C19.8136 12.292 20.0521 12.5305 20.0521 12.8247C20.0521 13.1189 19.8136 13.3575 19.5194 13.3575H6.71242C6.4182 13.3575 6.17969 13.1189 6.17969 12.8247Z" fill="url(#paint3_linear_387_106)"/>
<path d="M27.1716 13.5079C27.013 13.5079 26.8796 13.4537 26.7711 13.3452C26.6626 13.2367 26.6084 13.1033 26.6084 12.9447V5.77399H24.0555C23.9053 5.77399 23.7802 5.72393 23.68 5.62382C23.5799 5.5237 23.5299 5.39856 23.5299 5.24839C23.5299 5.09821 23.5799 4.97307 23.68 4.87296C23.7802 4.7645 23.9053 4.71027 24.0555 4.71027H30.2876C30.4378 4.71027 30.563 4.7645 30.6631 4.87296C30.7715 4.97307 30.8258 5.09821 30.8258 5.24839C30.8258 5.39856 30.7715 5.5237 30.6631 5.62382C30.563 5.72393 30.4378 5.77399 30.2876 5.77399H27.7472V12.9447C27.7472 13.1033 27.6888 13.2367 27.572 13.3452C27.4636 13.4537 27.3301 13.5079 27.1716 13.5079ZM32.9469 13.5079C32.78 13.5079 32.6423 13.4537 32.5339 13.3452C32.4338 13.2367 32.3837 13.1033 32.3837 12.9447C32.3837 12.878 32.4046 12.7946 32.4463 12.6944L35.6375 5.16079C35.7042 5.01061 35.796 4.88964 35.9128 4.79787C36.0379 4.69775 36.1881 4.6477 36.3633 4.6477H36.4884C36.6636 4.6477 36.8096 4.69775 36.9264 4.79787C37.0516 4.88964 37.1475 5.01061 37.2143 5.16079L40.4054 12.6944C40.4472 12.7946 40.468 12.878 40.468 12.9447C40.468 13.1033 40.4138 13.2367 40.3053 13.3452C40.2052 13.4537 40.0717 13.5079 39.9049 13.5079C39.7881 13.5079 39.6796 13.4787 39.5795 13.4203C39.4877 13.3535 39.4168 13.2659 39.3667 13.1575L38.5533 11.2052H34.2984L33.485 13.1575C33.4349 13.2659 33.3598 13.3535 33.2597 13.4203C33.168 13.4787 33.0637 13.5079 32.9469 13.5079ZM34.7364 10.1665H38.1153L36.4259 6.09937L34.7364 10.1665ZM44.4067 13.5079C44.2482 13.5079 44.1147 13.4537 44.0063 13.3452C43.8978 13.2367 43.8436 13.1033 43.8436 12.9447V5.47365C43.8436 5.24839 43.9228 5.0565 44.0814 4.89798C44.2399 4.73113 44.4318 4.6477 44.657 4.6477H44.8197C45.0867 4.6477 45.3161 4.77284 45.508 5.02313L50.326 11.9811V5.22336C50.326 5.06484 50.3803 4.93136 50.4887 4.8229C50.5972 4.7061 50.7307 4.6477 50.8892 4.6477C51.0477 4.6477 51.1812 4.7061 51.2896 4.8229C51.4064 4.93136 51.4648 5.06484 51.4648 5.22336V12.6944C51.4648 12.9197 51.3814 13.1116 51.2146 13.2701C51.056 13.4286 50.8642 13.5079 50.6389 13.5079H50.4887C50.3552 13.5079 50.2301 13.4787 50.1133 13.4203C49.9965 13.3535 49.9005 13.2701 49.8255 13.17L44.9824 6.17445V12.9447C44.9824 13.1033 44.924 13.2367 44.8072 13.3452C44.6987 13.4537 44.5652 13.5079 44.4067 13.5079ZM55.9872 13.5079C55.8287 13.5079 55.6952 13.4537 55.5868 13.3452C55.4783 13.2367 55.4241 13.1033 55.4241 12.9447V5.22336C55.4241 5.06484 55.4783 4.93136 55.5868 4.8229C55.6952 4.7061 55.8287 4.6477 55.9872 4.6477C56.1458 4.6477 56.2792 4.7061 56.3877 4.8229C56.5045 4.93136 56.5629 5.06484 56.5629 5.22336V9.20293L60.8428 4.84793C60.9596 4.71444 61.1015 4.6477 61.2683 4.6477C61.4101 4.6477 61.5311 4.69775 61.6312 4.79787C61.7397 4.88964 61.7939 5.00644 61.7939 5.14827C61.7939 5.31513 61.748 5.44445 61.6563 5.53622L58.7654 8.41453L62.0818 12.5943C62.1735 12.7111 62.2194 12.8321 62.2194 12.9573C62.2278 13.1074 62.1777 13.2367 62.0692 13.3452C61.9608 13.4537 61.8273 13.5079 61.6688 13.5079C61.4769 13.5079 61.3267 13.4328 61.2183 13.2826L57.9895 9.16539L56.5629 10.6045V12.9447C56.5629 13.1033 56.5045 13.2367 56.3877 13.3452C56.2792 13.4537 56.1458 13.5079 55.9872 13.5079Z" fill="white"/>
<defs>
<linearGradient id="paint0_linear_387_106" x1="8.91796" y1="0.625" x2="8.91796" y2="19.3772" gradientUnits="userSpaceOnUse">
<stop stop-color="#FF881A"/>
<stop offset="1" stop-color="#FF511A"/>
</linearGradient>
<linearGradient id="paint1_linear_387_106" x1="10.3989" y1="6.64453" x2="10.3989" y2="7.71" gradientUnits="userSpaceOnUse">
<stop stop-color="#FF881A"/>
<stop offset="1" stop-color="#FF511A"/>
</linearGradient>
<linearGradient id="paint2_linear_387_106" x1="10.399" y1="6.64453" x2="10.399" y2="13.357" gradientUnits="userSpaceOnUse">
<stop stop-color="#FF881A"/>
<stop offset="1" stop-color="#FF511A"/>
</linearGradient>
<linearGradient id="paint3_linear_387_106" x1="13.1159" y1="12.292" x2="13.1159" y2="13.3575" gradientUnits="userSpaceOnUse">
<stop stop-color="#FF881A"/>
<stop offset="1" stop-color="#FF511A"/>
</linearGradient>
</defs>
</svg>
